<svg xmlns="http://www.w3.org/2000/svg" width="32" height="32"><path fill="#4d5ae5" d="M32 16c0 4.42-1.8 8.42-4.69 11.31a15.96 15.96 0 0 1-22.62 0 15.95 15.95 0 0 1 0-22.63C7.59 1.8 11.59 0 16 0c4.42 0 8.42 1.8 11.31 4.69S32 11.59 32 16z"/><path fill="#f4f4fd" d="M25.58 12.04a7.02 7.02 0 0 0-.44-2.32 4.7 4.7 0 0 0-1.12-1.7 4.71 4.71 0 0 0-1.7-1.11c-.6-.24-1.3-.4-2.32-.45-1.03-.05-1.36-.06-3.96-.06s-2.94.01-3.96.06a7.02 7.02 0 0 0-2.33.44 4.7 4.7 0 0 0-1.7 1.11 4.72 4.72 0 0 0-1.1 1.7c-.25.61-.41 1.31-.46 2.33-.04 1.03-.06 1.36-.06 3.96s.02 2.93.06 3.96c.05 1.02.21 1.72.45 2.33.24.64.62 1.22 1.1 1.7.49.49 1.07.87 1.7 1.1.62.24 1.31.4 2.33.45 1.03.05 1.35.06 3.96.06s2.93-.01 3.96-.06a7.02 7.02 0 0 0 2.33-.44 4.91 4.91 0 0 0 2.8-2.81c.24-.61.4-1.31.45-2.33.05-1.03.06-1.35.06-3.96s0-2.93-.05-3.96zm-1.73 7.84c-.04.94-.2 1.45-.33 1.79-.32.83-.98 1.5-1.82 1.82-.34.13-.85.29-1.78.33-1.02.04-1.32.05-3.88.05s-2.87 0-3.88-.05a5.27 5.27 0 0 1-1.78-.33c-.42-.15-.8-.4-1.1-.72a2.96 2.96 0 0 1-.72-1.1 5.29 5.29 0 0 1-.33-1.78c-.04-1.02-.06-1.32-.06-3.88s.02-2.87.06-3.88c.04-.94.2-1.44.33-1.78.15-.42.4-.8.72-1.1.31-.32.69-.57 1.1-.72.34-.13.85-.29 1.79-.33a67.8 67.8 0 0 1 3.87-.06c2.57 0 2.87.02 3.88.06.94.04 1.45.2 1.78.33.42.15.8.4 1.1.72.33.3.57.68.72 1.1.13.34.3.85.33 1.78.05 1.01.06 1.32.06 3.88s-.01 2.86-.06 3.87z"/><path fill="#f4f4fd" d="M16.04 11.07a4.93 4.93 0 1 0 0 9.87 4.93 4.93 0 0 0 0-9.87zm0 8.13a3.2 3.2 0 1 1 0-6.4 3.2 3.2 0 0 1 0 6.4zM22.31 10.88a1.15 1.15 0 1 1-2.3 0 1.15 1.15 0 0 1 2.3 0z"/></svg>