<svg xmlns="http://www.w3.org/2000/svg" width="32" height="32"><path fill="#4d5ae5" d="M32 16c0 4.42-1.8 8.42-4.69 11.31a15.96 15.96 0 0 1-22.62 0 15.95 15.95 0 0 1 0-22.63C7.59 1.8 11.59 0 16 0c4.42 0 8.42 1.8 11.31 4.69S32 11.59 32 16z"/><path fill="#f4f4fd" d="M25.6 25.6v-7.04c0-3.45-.74-6.1-4.77-6.1a4.18 4.18 0 0 0-3.77 2.07h-.05v-1.75h-3.82V25.6h3.98v-6.35c0-1.67.31-3.28 2.38-3.28 2.04 0 2.07 1.9 2.07 3.39v6.24h3.97zM6.72 12.78h3.98V25.6H6.72V12.78zM8.7 6.4c-1.27 0-2.3 1.03-2.3 2.3s1.03 2.33 2.3 2.33a2.3 2.3 0 0 0 0-4.63z"/></svg>