<svg xmlns="http://www.w3.org/2000/svg" width="32" height="32"><path fill="#4d5ae5" d="M32 16a16 16 0 0 1-4.7 11.3 16 16 0 0 1-22.6 0 16 16 0 0 1 0-22.6A16 16 0 0 1 32 16z"/><path fill="#f4f4fd" d="M25.6 12a7 7 0 0 0-.5-2.3 4.7 4.7 0 0 0-1-1.7 4.7 4.7 0 0 0-1.8-1 7 7 0 0 0-2.3-.5l-4-.1h-4a7 7 0 0 0-2.3.5A4.7 4.7 0 0 0 8 8a4.7 4.7 0 0 0-1 1.7c-.3.6-.5 1.3-.5 2.3v8c0 1 .2 1.7.4 2.3A4.8 4.8 0 0 0 9.7 25c.7.2 1.3.4 2.4.4l4 .1H20a7 7 0 0 0 2.3-.5 5 5 0 0 0 2.8-2.8 7 7 0 0 0 .5-2.3v-8zM23.8 20c0 1-.2 1.4-.3 1.8-.3.8-1 1.5-1.8 1.8-.3.1-.8.3-1.8.3H12.2a5.3 5.3 0 0 1-1.8-.3l-1.1-.7a3 3 0 0 1-.7-1.1 5.3 5.3 0 0 1-.4-1.8V12c0-1 .2-1.4.4-1.8.1-.4.4-.8.7-1a3 3 0 0 1 1-.8c.4-.1 1-.3 1.9-.3a67.8 67.8 0 0 1 3.8 0h4c.9 0 1.4.2 1.7.3l1.1.7c.3.4.6.7.7 1.2.2.3.3.8.4 1.7V20z"/><path fill="#f4f4fd" d="M16 11a5 5 0 1 0 0 10 5 5 0 0 0 0-10zm0 8.2a3.2 3.2 0 1 1 0-6.4 3.2 3.2 0 0 1 0 6.4zm6.3-8.3a1.1 1.1 0 1 1-2.3 0 1.1 1.1 0 0 1 2.3 0z"/></svg>